<svg width="22" height="19" viewBox="0 0 22 19" fill="none" xmlns="http://www.w3.org/2000/svg">
<g id="Group 3">
<path id="Vector 2" d="M0 1.24544H2.1196C2.56029 1.24544 2.94903 1.53393 3.07671 1.95572L6.02465 11.6944M6.02465 11.6944H17.3372C17.7753 11.6944 18.1624 11.4092 18.2923 10.9908L20.4838 3.92829H6.62711M6.02465 11.6944L5.45285 12.9676C5.15567 13.6293 5.63972 14.3773 6.36507 14.3773H18.0739" stroke="#5360A8"/>
<path id="Ellipse 2" d="M9.59148 16.6365C9.59148 17.5002 8.83473 18.2546 7.83224 18.2546C6.82975 18.2546 6.073 17.5002 6.073 16.6365C6.073 15.7728 6.82975 15.0185 7.83224 15.0185C8.83473 15.0185 9.59148 15.7728 9.59148 16.6365Z" stroke="#5360A8"/>
<path id="Ellipse 3" d="M17.4234 16.6365C17.4234 17.5002 16.6666 18.2546 15.6641 18.2546C14.6617 18.2546 13.9049 17.5002 13.9049 16.6365C13.9049 15.7728 14.6617 15.0185 15.6641 15.0185C16.6666 15.0185 17.4234 15.7728 17.4234 16.6365Z" stroke="#5360A8"/>
</g>
</svg>
